<?xml version="1.0" encoding="UTF-8"?> <svg xmlns="http://www.w3.org/2000/svg" width="203" height="37" viewBox="0 0 203 37" fill="none"> <g clip-path="url(#clip0_539_19)"> <path d="M146.819 8.77158C145.335 7.26181 143.287 6.51352 140.675 6.51352H129.962V10.1631H140.097C143.287 10.1631 144.876 11.8172 144.876 15.1123V21.0856C144.876 24.3545 143.287 25.9824 140.097 25.9824H133.257V26.0348H130.986C127.796 26.0348 126.208 24.3808 126.208 21.0857V15.1124C126.208 11.9878 127.676 10.38 130.59 10.2426V6.51353H130.408C127.796 6.51353 125.748 7.2487 124.265 8.73216C122.781 10.2156 122.046 12.2767 122.046 14.9417V21.2563C122.046 23.8688 122.781 25.9299 124.265 27.4264C125.748 28.9362 127.796 29.6845 130.408 29.6845H140.675C143.287 29.6845 145.335 28.9493 146.819 27.4659C148.302 25.9824 149.037 23.9212 149.037 21.2563V14.9417C149.037 12.3292 148.302 10.2681 146.819 8.77158Z" fill="#2CE817"></path> <path d="M136.761 0H130.309C129.784 0 129.521 0.26245 129.521 0.80054V3.3606C129.521 3.88575 129.784 4.16138 130.309 4.16138H133.401V35.8132C133.401 36.3383 133.663 36.6009 134.201 36.6009H136.761C137.286 36.6009 137.562 36.3383 137.562 35.8132V0.78766C137.562 0.26257 137.3 0 136.761 0Z" fill="#2E2D2C"></path> <path d="M167.601 6.51349H157.297C156.759 6.51349 156.497 6.78925 156.497 7.31433V35.8032C156.497 36.3283 156.759 36.5909 157.297 36.5909H159.857C160.383 36.5909 160.658 36.3283 160.658 35.8032V29.6844H167.601C170.213 29.6844 172.261 28.9493 173.744 27.4658C175.228 25.9824 175.963 23.9213 175.963 21.2562V14.9416C175.963 12.3292 175.228 10.2681 173.744 8.77155C172.261 7.26185 170.213 6.51349 167.601 6.51349ZM171.802 21.0856C171.802 24.3545 170.213 25.9824 167.023 25.9824H160.658V10.1631H167.023C170.213 10.1631 171.802 11.8172 171.802 15.1124V21.0856Z" fill="#2E2D2C"></path> <path d="M202.885 14.9399C202.885 12.3274 202.149 10.2663 200.666 8.76978C199.182 7.26001 197.135 6.51172 194.522 6.51172H191.781C189.168 6.51172 187.12 7.26001 185.637 8.76978C184.971 9.44062 184.472 10.2367 184.113 11.1379C183.971 11.494 184.186 11.8949 184.553 12.0058L187.267 12.8256C187.604 12.9273 187.939 12.7417 188.087 12.4224C188.785 10.9183 190.205 10.1613 192.358 10.1613H193.944C197.071 10.1613 198.649 11.7601 198.711 14.9247L187.582 17.6445L183.422 18.6644V21.2545C183.422 21.6545 183.442 22.0344 183.472 22.4045C183.652 24.5245 184.372 26.2045 185.632 27.4645C187.122 28.9445 189.172 29.6844 191.782 29.6844H202.885V20.5917L202.885 14.9399ZM192.362 25.9844C189.272 25.9844 187.682 24.4545 187.592 21.3945L198.722 18.6844L198.723 19.6076L198.723 25.9844H192.362Z" fill="#2E2D2C"></path> <path d="M88.033 26.0316H83.8945V7.3103C83.8945 6.77954 83.6291 6.51349 83.0984 6.51349H80.5933C80.0613 6.51349 79.7971 6.77954 79.7971 7.3103V26.0316H69.021V7.3103C69.021 6.77954 68.7568 6.51349 68.2249 6.51349H65.7197C65.189 6.51349 64.9236 6.77954 64.9236 7.3103V28.8777C64.9236 29.4097 65.189 29.6744 65.7197 29.6744H85.1875V32.5245C85.1875 33.0565 85.4521 33.3219 85.9841 33.3219H88.0334C88.5642 33.3219 88.8303 33.0565 88.8303 32.5245V26.8284C88.8303 26.2976 88.5649 26.0316 88.033 26.0316Z" fill="#2E2D2C"></path> <path d="M22.176 6.5135H11.8728C11.3345 6.5135 11.072 6.78926 11.072 7.31434V35.8032C11.072 36.3283 11.3345 36.5909 11.8728 36.5909H14.4314C14.8743 36.5909 15.2336 36.2317 15.2336 35.7886V29.6844H22.176C24.7886 29.6844 26.8362 28.9493 28.3198 27.4658C29.8032 25.9824 30.5383 23.9213 30.5383 21.2562V14.9416C30.5383 12.3292 29.8032 10.2681 28.3198 8.77155C26.8362 7.26185 24.7886 6.5135 22.176 6.5135ZM26.377 21.0856C26.377 24.3545 24.7886 25.9824 21.5981 25.9824H15.2336V10.1632H21.5981C24.7886 10.1632 26.377 11.8172 26.377 15.1124V21.0856Z" fill="#2E2D2C"></path> <path d="M55.25 8.73346C53.76 7.25348 51.71 6.51349 49.1001 6.51349H47.2V6.51526H46.3601C43.7478 6.51526 41.7 7.25043 40.2163 8.73389C38.7332 10.2174 37.9978 12.2785 37.9978 14.9435V21.2581C37.9978 23.8705 38.7332 25.9316 40.2163 27.4282C41.7 28.9379 43.7478 29.6862 46.3601 29.6862H49.1018C51.7144 29.6862 53.7625 28.9379 55.2456 27.4282C55.9109 26.7573 56.4099 25.9612 56.7693 25.0601C56.9114 24.704 56.6965 24.303 56.3294 24.1922L53.6155 23.3724C53.2786 23.2706 52.9429 23.4562 52.7949 23.7756C52.0977 25.2796 50.6775 26.0366 48.5242 26.0366H46.938C43.8118 26.0366 42.2336 24.4378 42.1711 21.2731L53.3001 18.5535L57.46 17.5335V14.9435C57.46 14.5435 57.4399 14.1635 57.4099 13.7935C57.23 11.6735 56.51 9.99347 55.25 8.73346ZM42.1599 17.5135L42.1594 15.1142C42.1594 11.8452 43.7478 10.2174 46.938 10.2174H48.5793C51.6277 10.2382 53.2004 11.7643 53.29 14.8035L42.1599 17.5135Z" fill="#2E2D2C"></path> <path d="M113.791 6.51349H111.457C111.001 6.51349 110.698 6.66541 110.546 6.96863L99.6877 26.048H99.2163V7.31439C99.2163 6.78918 98.9536 6.51349 98.4285 6.51349H95.9211C95.3828 6.51349 95.1204 6.78919 95.1204 7.31439V28.8837C95.1204 29.4219 95.3828 29.6844 95.9211 29.6844H101.877L110.261 15.0512H110.489V28.8876C110.489 29.4197 110.755 29.6844 111.285 29.6844H113.791C114.323 29.6844 114.587 29.4197 114.587 28.8876V7.3103C114.587 6.77954 114.323 6.51349 113.791 6.51349Z" fill="#2E2D2C"></path> <path d="M5.05714 6.69128L0.270761 10.7077C-0.268299 11.16 0.0515206 12.0387 0.755141 12.0387H3.31715L4.96412 14.0015C5.41651 14.5406 6.29517 14.2207 6.29517 13.5171V7.26862C6.29517 6.62842 5.54762 6.27978 5.05714 6.69128Z" fill="#2E2D2C"></path> </g> <defs> <clipPath id="clip0_539_19"> <rect width="203" height="37" fill="white"></rect> </clipPath> </defs> </svg> 